<svg width="573" height="445" viewBox="0 0 573 445" fill="none" xmlns="http://www.w3.org/2000/svg">
<path d="M317.404 364.506L229.386 133.441L24.4802 208.726L22.111 202.468L9.2804 207.522C9.2804 207.522 6.12585 208.747 3.63346 213.889C1.14106 219.03 2.2177 223.341 2.2177 223.341L81.305 432.201C81.305 432.201 83.48 437.984 89.2223 440.872C95.4359 443.998 103.813 441.426 103.813 441.426L108.28 437.982L317.404 364.506Z" fill="#6F5845"/>
<path d="M283.129 342.923L114.739 403.34C112.901 404 111.962 405.979 112.642 407.762L123.386 435.934L298.465 373.218L287.687 344.957C287.008 343.174 284.967 342.264 283.129 342.923Z" fill="#2F3030"/>
<path fill-rule="evenodd" clip-rule="evenodd" d="M314.353 367.526L313.454 367.848C314.051 367.635 314.625 367.361 315.129 366.985C314.652 367.34 314.353 367.526 314.353 367.526ZM247.24 159.423L249.043 164.07C248.153 161.783 245.024 161.047 242.503 161.047C244.297 161.047 245.945 160.439 247.24 159.423Z" fill="#303231"/>
<path fill-rule="evenodd" clip-rule="evenodd" d="M49.127 195.032L47.7864 195.536L28.8897 202.643L27.3945 203.206L26.0566 202.34L26.0432 202.332L26.0357 202.327L24.7333 201.485L13.0264 205.826C13.0264 205.826 9.88301 207.078 7.43696 212.24C4.99092 217.403 6.1063 221.705 6.1063 221.705L86.3712 432.067C86.3712 432.067 88.5982 437.832 94.3663 440.671C100.608 443.744 108.962 441.101 108.962 441.101L119.184 437.439L107.948 407.977C106.588 404.411 108.466 400.452 112.142 399.133L281.277 338.449C284.953 337.13 289.035 338.951 290.395 342.516L301.666 372.071L313.454 367.848C314.051 367.635 314.625 367.361 315.129 366.985C316.412 366.027 318.989 363.831 320.562 360.656C322.807 356.125 321.655 351.191 321.655 351.191L249.043 164.07C248.153 161.783 245.024 161.047 242.503 161.047C238.338 161.047 234.963 157.773 234.963 153.734C234.963 149.965 237.901 146.863 241.677 146.464L236.623 135.168C234.704 130.898 229.63 128.884 225.174 130.626L213.638 135.138L204.097 138.661L207.025 146.473L231.063 205.923L231.066 205.933C232.725 210.374 230.375 215.285 225.811 216.93L94.9311 263.961C90.4199 265.576 85.4024 263.41 83.6206 259.077L57.7446 195.819L50.6483 198.4L49.127 195.032ZM164.633 321.865C184.719 321.865 201.002 306.072 201.002 286.59C201.002 267.107 184.719 251.314 164.633 251.314C144.547 251.314 128.265 267.107 128.265 286.59C128.265 306.072 144.547 321.865 164.633 321.865ZM276.128 329.434L235.29 344.087C233.517 344.723 232.612 346.632 233.267 348.351C233.923 350.07 235.892 350.949 237.664 350.313L278.502 335.66C280.275 335.024 281.18 333.115 280.525 331.396C279.869 329.676 277.901 328.798 276.128 329.434Z" fill="#2F3030"/>
<path fill-rule="evenodd" clip-rule="evenodd" d="M198.341 285.73C198.341 303.786 183.249 318.424 164.633 318.424C146.017 318.424 130.926 303.786 130.926 285.73C130.926 267.673 146.017 253.035 164.633 253.035C183.249 253.035 198.341 267.673 198.341 285.73ZM165.785 278.243C164.641 277.134 162.83 277.112 161.66 278.192L156.76 282.719C155.496 283.887 155.471 285.877 156.707 287.076L161.606 291.827C162.79 292.976 164.679 292.953 165.835 291.776L170.502 287.023C171.668 285.836 171.644 283.926 170.45 282.768L165.785 278.243ZM170.585 274.971C169.286 273.811 169.245 271.793 170.494 270.58L175.435 265.788C176.587 264.671 178.415 264.658 179.583 265.76L191.625 277.125C192.868 278.298 192.881 280.27 191.655 281.46L187.04 285.936C185.91 287.032 184.126 287.068 182.952 286.02L170.585 274.971Z" fill="#EADAC9"/>
<path fill-rule="evenodd" clip-rule="evenodd" d="M104.072 249.692L105.318 252.993L108.696 251.711C106.844 252.414 104.758 251.503 104.072 249.692ZM132.681 242.607L135.921 241.378L134.717 238.212C135.386 239.97 134.481 241.924 132.681 242.607Z" fill="#EADAC9"/>
<path fill-rule="evenodd" clip-rule="evenodd" d="M180.143 149.518C179.225 148.331 177.58 147.816 176.073 148.358L58.8859 191.162C57.555 191.592 56.9812 192.882 57.1119 194.173C57.1414 194.466 57.2105 194.76 57.322 195.048L57.6262 195.835L58.0504 196.932L85.4489 263.548C86.1352 265.323 88.1725 266.226 90.0051 265.566L205.247 224.286C207.089 223.624 208.098 221.43 207.408 219.645L180.628 150.377C180.506 150.061 180.341 149.774 180.143 149.518ZM105.318 252.993L104.072 249.692L83.4584 195.093C82.7932 193.326 83.7138 191.368 85.5254 190.697L89.6031 189.191L91.569 188.464L90.9038 186.528C90.5321 185.447 91.1049 184.273 92.2027 183.867L97.5804 181.88C98.6567 181.484 99.8567 182.036 100.221 183.096L100.883 185.023L102.847 184.317L109.526 181.918C111.366 181.257 113.409 182.169 114.087 183.954L134.717 238.212L135.921 241.378L132.681 242.607L108.696 251.711L105.318 252.993ZM171.923 156.251L167.584 157.781C166.041 158.326 165.279 160.008 165.909 161.478C166.501 162.855 168.107 163.542 169.552 163.032L173.891 161.501C175.435 160.957 176.197 159.272 175.565 157.802C174.973 156.424 173.369 155.741 171.923 156.251Z" fill="#EADAC9"/>
<path d="M401.841 93.8053L303.793 193.417L359.652 100.997L337.053 91.9001L438.702 1.00018L379.971 86.9416L401.841 93.8053Z" stroke="black"/>
<path d="M474.785 329.044L337 305.564L444.761 298.545L439.302 274.802L571.999 306.218L467.911 307.177L474.785 329.044Z" stroke="black"/>
</svg>
