<svg width="240" height="240" viewBox="0 0 240 240" fill="none" xmlns="http://www.w3.org/2000/svg">
<path d="M240 120C240 125.744 239.596 131.394 238.816 136.922C231.29 190.241 188.722 232.3 135.158 239.052C130.194 239.678 125.134 240 120 240C53.7258 240 0 186.274 0 120C0 53.7258 53.7258 0 120 0C186.274 0 240 53.7258 240 120Z" fill="#FF0000"/>
<path d="M240 120C240 125.744 239.596 131.394 238.816 136.922C231.29 190.241 188.722 232.3 135.158 239.052C130.194 239.678 125.134 240 120 240C53.7258 240 0 186.274 0 120C0 53.7258 53.7258 0 120 0C186.274 0 240 53.7258 240 120Z" fill="#FF0000"/>
<path fill-rule="evenodd" clip-rule="evenodd" d="M150.337 120.878L176.654 147.195C182.122 152.663 182.122 161.527 176.654 166.994L165.994 177.655C160.527 183.122 151.662 183.122 146.195 177.655L119.877 151.337L150.337 120.878Z" fill="#D6D6D6"/>
<path d="M146.195 64.1005L119.877 90.4184L93.5597 64.1009C88.0924 58.6335 79.2281 58.6335 73.7607 64.1009L63.1005 74.7611C57.6332 80.2284 57.6332 89.0928 63.1005 94.5601L89.418 120.878L63.1006 147.195C57.6333 152.662 57.6333 161.527 63.1006 166.994L73.7609 177.654C79.2282 183.122 88.0925 183.122 93.5598 177.654L119.877 151.337L150.337 120.878L176.654 94.5597C182.122 89.0924 182.122 80.2281 176.654 74.7607L165.994 64.1005C160.527 58.6332 151.663 58.6332 146.195 64.1005Z" fill="white"/>
<path fill-rule="evenodd" clip-rule="evenodd" d="M176.654 147.195L150.337 120.878L176.654 94.5597C182.122 89.0924 182.122 80.2281 176.654 74.7607L238.816 136.922C231.29 190.241 188.722 232.3 135.158 239.052L73.7609 177.654C79.2282 183.122 88.0925 183.122 93.5598 177.654L119.877 151.337L146.195 177.655C151.662 183.122 160.527 183.122 165.994 177.655L176.654 166.994C182.122 161.527 182.122 152.663 176.654 147.195Z" fill="#DC0202"/>
</svg>
