<svg width="789" height="586" viewBox="0 0 789 586" fill="none" xmlns="http://www.w3.org/2000/svg">
<path d="M732.613 24.8604C646.047 -48.6461 459.108 61.3104 350.383 91.7129C267.932 114.768 94.5912 86.3688 38.7832 152.279C-5.92402 205.078 30.8828 279.654 24.1639 349.006C16.9412 423.558 -26.396 486.37 24.1639 540.833C82.9778 604.187 315.333 524.923 400.924 521.52C532.689 516.282 698.1 653.026 770.397 540.833C825.446 455.406 739.948 383.982 732.612 282.107C725.397 181.915 808.424 89.2342 732.613 24.8604Z" fill="#B9E1FF"/>
<path d="M608.038 123.246C553.508 76.9422 435.751 146.206 367.263 165.357C315.325 179.881 206.134 161.991 170.979 203.509C142.817 236.769 166.002 283.746 161.77 327.432C157.22 374.394 129.921 413.961 161.77 448.268C198.818 488.176 345.184 438.246 399.1 436.103C482.101 432.803 586.297 518.941 631.839 448.268C666.515 394.456 612.659 349.464 608.037 285.291C603.492 222.178 655.793 163.796 608.038 123.246Z" fill="#ABDBFF"/>
<path d="M730.52 237.828H513.712L473.41 280.405V237.828H436V83H730.52V237.828Z" fill="white"/>
<path d="M729.665 83.8545V236.974H513.345L513.092 237.24L474.264 278.26V236.974H436.854V83.8545H729.665Z" stroke="black" stroke-opacity="0.3" stroke-width="1.70842"/>
<path d="M682.224 128.481H484.291V136.867H682.224V128.481Z" fill="#787878"/>
<path d="M682.224 156.221H484.291V164.608H682.224V156.221Z" fill="#787878"/>
<path d="M682.224 183.961H484.291V192.347H682.224V183.961Z" fill="#787878"/>
<path d="M491.48 305.595H786V460.422H748.59V503L708.288 460.422H491.48V305.595Z" fill="#00ABFF"/>
<path d="M737.464 350.849H540.021V359.432H737.464V350.849Z" fill="white"/>
<path d="M737.464 378.938H540.021V386.741H737.464V378.938Z" fill="white"/>
<path d="M737.464 406.248H540.021V414.831H737.464V406.248Z" fill="white"/>
</svg>
